<?xml version="1.0" encoding="UTF-8" standalone="no"?>
<svg
   xmlns:dc="http://purl.org/dc/elements/1.1/"
   xmlns:cc="http://creativecommons.org/ns#"
   xmlns:rdf="http://www.w3.org/1999/02/22-rdf-syntax-ns#"
   xmlns:svg="http://www.w3.org/2000/svg"
   xmlns="http://www.w3.org/2000/svg"
   xmlns:sodipodi="http://sodipodi.sourceforge.net/DTD/sodipodi-0.dtd"
   xmlns:inkscape="http://www.inkscape.org/namespaces/inkscape"
   sodipodi:docname="Bintang_Toedjoe.svg"
   inkscape:version="1.0 (4035a4fb49, 2020-05-01)"
   id="svg8"
   version="1.1"
   viewBox="0 0 353.98822 129.57422"
   height="129.57422mm"
   width="353.98822mm">
  <defs
     id="defs2" />
  <sodipodi:namedview
     inkscape:window-maximized="1"
     inkscape:window-y="-8"
     inkscape:window-x="-8"
     inkscape:window-height="715"
     inkscape:window-width="1366"
     inkscape:guide-bbox="true"
     showguides="true"
     showgrid="false"
     inkscape:document-rotation="0"
     inkscape:current-layer="layer1"
     inkscape:document-units="mm"
     inkscape:cy="165.27023"
     inkscape:cx="484.37652"
     inkscape:zoom="0.35"
     inkscape:pageshadow="2"
     inkscape:pageopacity="0.0"
     borderopacity="1.0"
     bordercolor="#666666"
     pagecolor="#ffffff"
     id="base">
    <sodipodi:guide
       id="guide850"
       orientation="1,0"
       position="200.62481,239.18751" />
    <sodipodi:guide
       id="guide852"
       orientation="1,0"
       position="123.66136,170.40873" />
    <sodipodi:guide
       id="guide856"
       orientation="1,0"
       position="162.57986,260.58254" />
  </sodipodi:namedview>
  <metadata
     id="metadata5">
    <rdf:RDF>
      <cc:Work
         rdf:about="">
        <dc:format>image/svg+xml</dc:format>
        <dc:type
           rdf:resource="http://purl.org/dc/dcmitype/StillImage" />
        <dc:title></dc:title>
      </cc:Work>
    </rdf:RDF>
  </metadata>
  <g
     transform="translate(-19.030482,-39.031106)"
     id="layer1"
     inkscape:groupmode="layer"
     inkscape:label="Layer 1">
    <g
       style="fill:#ffffff;stroke-width:15.3;stroke-miterlimit:4;stroke-dasharray:none"
       transform="translate(-0.25016,112.09741)"
       id="g938">
      <path
         id="path969"
         d="m 196.95447,-73.066304 -3.69727,1.96094 -42.98242,22.79883 v 5.5625 H 90.167361 19.280642 v 34.107422 34.109375 h 70.886719 60.093749 l -0.002,4.882812 46.27929,26.152344 46.00586,-25.25 v -5.785156 h 59.81836 70.90625 l -0.0859,-34.0625 -0.0879,-34.013672 -70.79101,-0.07617 -59.7793,-0.05664 v -4.632812 z"
         style="color:#000000;font-style:normal;font-variant:normal;font-weight:normal;font-stretch:normal;font-size:medium;line-height:normal;font-family:sans-serif;font-variant-ligatures:normal;font-variant-position:normal;font-variant-caps:normal;font-variant-numeric:normal;font-variant-alternates:normal;font-variant-east-asian:normal;font-feature-settings:normal;font-variation-settings:normal;text-indent:0;text-align:start;text-decoration:none;text-decoration-line:none;text-decoration-style:solid;text-decoration-color:#000000;letter-spacing:normal;word-spacing:normal;text-transform:none;writing-mode:lr-tb;direction:ltr;text-orientation:mixed;dominant-baseline:auto;baseline-shift:baseline;text-anchor:start;white-space:normal;shape-padding:0;shape-margin:0;inline-size:0;clip-rule:nonzero;display:inline;overflow:visible;visibility:visible;opacity:1;isolation:auto;mix-blend-mode:normal;color-interpolation:sRGB;color-interpolation-filters:linearRGB;solid-color:#000000;solid-opacity:1;vector-effect:none;fill:#ffffff;fill-opacity:1;fill-rule:nonzero;stroke:none;stroke-width:15.3;stroke-linecap:butt;stroke-linejoin:miter;stroke-miterlimit:4;stroke-dasharray:none;stroke-dashoffset:0;stroke-opacity:1;color-rendering:auto;image-rendering:auto;shape-rendering:auto;text-rendering:auto;enable-background:accumulate;stop-color:#000000;stop-opacity:1" />
    </g>
    <g
       transform="translate(14.398893,138.96005)"
       id="g959">
      <g
         id="g930">
        <path
           id="path880"
           d="M 11.698367,-36.266815 V -62.725148 H 74.933783 138.1692 v 26.458333 26.4583334 H 74.933783 11.698367 Z"
           style="fill:#20409a;fill-opacity:1;stroke-width:0.264583" />
        <path
           id="path902"
           d="m 223.8942,-36.26736 v -26.458879 l 63.16927,0.06669 63.16927,0.06669 0.0674,26.392187 0.0675,26.3921874 H 287.13088 223.8942 Z"
           style="fill:#20409a;fill-opacity:1;stroke-width:0.264583" />
        <path
           sodipodi:nodetypes="ccccccc"
           d="M 219.66165,-0.89961683 181.36018,20.120214 142.67926,-1.73869 l 0.0126,-69.596857 38.91848,-20.641653 38.03333,21.446844 z"
           inkscape:transform-center-x="1.4795992e-05"
           style="fill:#20409a;fill-opacity:1;fill-rule:evenodd;stroke-width:0.129545"
           id="path847" />
      </g>
      <path
         id="path904"
         style="fill:#ffffff;stroke-width:0.264583"
         d="m 254.47496,-15.602147 c 1.27012,-0.576861 2.74936,-2.030146 3.67625,-3.611769 0.94668,-1.615387 2.13651,-5.378437 2.67303,-8.453941 0.56974,-3.265932 0.65358,-11.912634 0.14623,-15.081249 -1.54188,-9.629625 -5.13003,-14.470616 -9.82331,-13.253195 -3.96096,1.027459 -6.51155,6.274251 -7.43261,15.289536 -0.32273,3.158885 -0.17666,9.51805 0.29356,12.780325 1.35325,9.388459 5.69154,14.499109 10.46685,12.330293 z m -3.27362,-9.89043 c -1.26378,-1.345242 -1.90714,-4.840716 -1.90714,-10.36185 0,-5.578952 0.94603,-9.698451 2.40676,-10.480207 1.39269,-0.745344 2.55621,0.514686 3.32947,3.605646 0.67228,2.687313 0.67232,11.337224 6e-5,14.202797 -0.77151,3.288654 -2.3871,4.568594 -3.82915,3.033614 z m 52.53577,9.982925 c 1.32266,-0.552638 2.10426,-1.327237 2.88288,-2.857013 1.84726,-3.629374 2.26057,-8.387085 2.15251,-24.779316 l -0.0793,-12.038542 h -2.77813 -2.77812 l -0.1323,14.419792 c -0.13935,15.1908 -0.19708,15.874999 -1.3395,15.874999 -0.73658,0 -1.08731,-1.443368 -1.23762,-5.093229 l -0.13896,-3.373437 h -2.45901 c -2.11944,0 -2.47573,0.06394 -2.58003,0.463021 -0.0665,0.254661 -0.13552,-1.561042 -0.15324,-4.034896 -0.0597,-8.320082 -1.26506,-13.144177 -4.03532,-16.149541 -1.67812,-1.820559 -2.75117,-2.106709 -7.90007,-2.106709 h -4.36562 v 19.446875 19.446875 l 4.30133,0.07271 c 3.90218,0.06596 4.42333,0.02021 5.61631,-0.49299 3.15444,-1.357 5.37467,-5.724424 6.04102,-11.883305 l 0.21466,-1.983912 0.19825,2.645833 c 0.53467,7.135056 2.06782,11.101557 4.76438,12.326112 1.33397,0.605782 2.5156,0.635799 3.80592,0.09668 z m -19.25333,-20.095704 v -10.186459 h 1.15493 c 1.42293,0 2.33051,0.655278 2.90857,2.099988 0.67746,1.693126 1.04389,5.642996 0.87291,9.409387 -0.28694,6.320594 -1.47902,8.863542 -4.15512,8.863542 h -0.78129 z m 36.34864,20.217164 c 1.36017,-0.377666 3.34217,-2.384473 4.37425,-4.428996 2.11178,-4.183435 3.07147,-10.101484 2.83909,-17.50796 -0.37359,-11.90765 -3.65654,-18.846474 -8.91683,-18.846474 -5.34741,0 -8.77816,7.876881 -8.78467,20.169391 -0.005,9.530894 1.5644,15.811976 4.74385,18.98547 1.76406,1.760728 3.49792,2.2523 5.74431,1.628569 z m -2.8712,-10.131311 c -1.36835,-1.368335 -2.14291,-6.238214 -1.89876,-11.937937 0.23493,-5.484582 1.17335,-8.640109 2.68208,-9.018775 2.29021,-0.574805 3.54894,3.27819 3.56542,10.913729 0.009,4.228878 -0.39248,7.568499 -1.06748,8.876816 -0.93949,1.82087 -2.18419,2.263246 -3.28126,1.166167 z m -80.0441,-4.926479 v -14.287499 h 2.51913 2.51913 l -0.0717,-5.225521 -0.0717,-5.225521 -7.73907,-0.07014 -7.73906,-0.07014 v 5.295665 5.295662 h 2.51354 2.51355 v 14.287499 14.2875 h 2.77812 2.77813 z m 39.42291,9.657292 v -4.630208 h -4.36562 -4.36563 v -2.902736 -2.902738 l 3.50573,-0.07382 3.50573,-0.07383 0.0724,-4.564063 0.0724,-4.564062 h -3.57812 -3.57812 v -2.639116 -2.639113 l 4.16719,-0.07287 4.16719,-0.07286 0.0757,-4.101042 c 0.0417,-2.255573 0.01,-4.368932 -0.0712,-4.696354 l -0.14693,-0.595313 h -6.87414 -6.87411 v 19.579167 19.579166 h 7.14375 7.14375 z m 66.675,0 v -4.630208 h -4.23333 -4.23334 v -2.910417 -2.910417 h 3.43959 3.43958 v -4.630208 -4.630208 h -3.43958 -3.43959 v -2.638941 -2.638944 l 4.0349,-0.07303 4.0349,-0.07304 v -4.630209 -4.630208 h -6.87917 -6.87917 l -0.0678,19.513021 -0.0679,19.51302 h 7.14547 7.14544 z" />
      <path
         id="path882"
         style="fill:#ffffff;stroke-width:0.264583"
         d="m 125.94072,-16.040226 c 1.30364,-0.544563 2.26637,-1.499801 2.87047,-2.84815 l 0.49447,-1.103648 0.13229,1.682864 0.13229,1.682866 1.85208,-0.0013 1.85209,-0.0013 0.0691,-10.745073 0.0691,-10.744885 h -3.97171 -3.97172 v 4.365625 4.365625 h 1.19062 c 1.05963,0 1.19015,0.0655 1.18628,0.595312 -0.006,0.808869 -1.03354,2.549015 -1.87257,3.170939 -0.62947,0.466593 -0.76271,0.476774 -1.60948,0.12297 -1.83632,-0.767262 -2.59992,-3.783705 -2.59749,-10.260893 0.002,-5.648958 0.51105,-8.549553 1.76063,-10.034588 1.41522,-1.681895 3.13254,-0.543848 3.8209,2.53206 l 0.32198,1.438783 h 2.77021 2.77021 l -0.18576,-1.885135 c -0.62409,-6.333575 -3.40583,-11.423352 -6.71196,-12.280951 -4.92847,-1.278429 -8.89565,4.143259 -10.07527,13.769211 -0.37022,3.021111 -0.37841,10.441313 -0.0148,13.368399 0.80951,6.515822 2.94772,11.086443 5.86696,12.541157 1.57431,0.784511 2.46937,0.847302 3.85101,0.270158 z m -93.571441,-1.499288 c 1.449326,-0.852014 2.630961,-2.576893 3.313379,-4.836676 0.369684,-1.224185 0.480476,-2.495788 0.484095,-5.55625 0.0053,-4.478512 -0.42164,-6.508033 -1.756788,-8.351149 l -0.758862,-1.047581 0.508701,-0.997141 c 1.087543,-2.131758 1.458717,-4.021891 1.439661,-7.331212 -0.02867,-4.979988 -1.144148,-7.633757 -3.747865,-8.91637 -1.134795,-0.55901 -1.650762,-0.616008 -6.328754,-0.699124 l -5.093229,-0.09049 v 19.358435 19.358433 l 5.357813,-0.08565 c 5.282342,-0.08444 5.375055,-0.09578 6.581849,-0.805222 z M 26.25045,-29.413252 v -3.489362 l 1.54323,0.161298 c 2.005608,0.209629 2.291003,0.334439 2.670802,1.168008 0.518613,1.13823 0.40522,4.013298 -0.189801,4.812393 -0.442085,0.593706 -0.731205,0.690544 -2.265495,0.758793 l -1.758736,0.07823 z m 0,-13.600438 v -3.042708 h 1.404639 c 2.149769,0 2.43182,0.331867 2.43182,2.86131 0,2.727267 -0.373275,3.224107 -2.422258,3.224107 H 26.25045 Z m 17.727084,7.011459 V -55.316815 H 41.067117 38.1567 v 19.314584 19.314583 h 2.910417 2.910417 z m 7.88326,9.258905 c -0.04293,-5.530622 -0.02826,-9.906169 0.0326,-9.723437 0.06086,0.182732 1.384493,4.678021 2.941413,9.989531 l 2.830764,9.657292 2.815005,0.07512 2.815002,0.07512 -0.06788,-19.257407 -0.06788,-19.257407 -2.704634,-0.07532 -2.704637,-0.07532 -0.181213,0.722012 c -0.09967,0.397107 -0.110858,4.895844 -0.02487,9.997196 0.08599,5.101352 0.107071,9.15612 0.04684,9.0106 -0.06022,-0.145521 -1.355952,-4.522608 -2.879391,-9.726862 -1.523439,-5.204253 -2.842525,-9.5798 -2.931298,-9.723437 -0.08877,-0.143638 -1.345004,-0.26116 -2.791624,-0.26116 h -2.630218 v 19.314584 19.314583 h 2.790032 2.790031 z m 23.337573,-4.099531 v -14.155208 h 2.651545 2.651549 l -0.07186,-5.093229 -0.07186,-5.093229 h -7.9375 -7.9375 l -0.07183,5.08358 -0.07182,5.083579 2.585366,0.0758 2.585368,0.07579 0.06846,14.089062 0.06847,14.089063 h 2.775804 2.775808 z m 9.082251,13.559896 c 0.07908,-0.327422 0.226436,-1.458515 0.327454,-2.513541 l 0.183668,-1.91823 h 2.726108 c 3.085595,0 2.865247,-0.175678 3.15269,2.513542 0.286729,2.682547 0.07165,2.513542 3.198784,2.513542 2.515568,0 2.760294,-0.04367 2.760294,-0.492583 0,-0.27092 -0.657754,-4.586936 -1.461674,-9.591146 -0.803924,-5.00421 -2.114352,-13.206219 -2.912063,-18.226688 -0.797713,-5.020469 -1.511448,-9.396015 -1.586074,-9.723437 -0.130524,-0.572658 -0.245451,-0.595313 -3.020041,-0.595313 h -2.884353 l -0.148169,0.727604 c -0.239906,1.178081 -5.979292,37.26932 -5.979292,37.599845 0,0.206544 0.867272,0.301718 2.749441,0.301718 2.632282,0 2.75557,-0.02537 2.893227,-0.595313 z m 1.761718,-12.832291 c -0.02008,-1.009589 1.464545,-11.670819 1.60361,-11.51559 0.155758,0.173857 1.575337,10.435034 1.575337,11.387042 0,0.358661 -3.171817,0.486923 -3.178947,0.128548 z m 17.138404,3.439583 c -0.12741,-8.695211 -0.0996,-9.833912 0.21502,-8.797396 0.19876,0.654844 1.52343,5.149453 2.94373,9.988021 l 2.58236,8.797396 h 2.71742 2.71743 v -19.314583 -19.314584 h -2.8021 -2.8021 l 0.0901,10.130184 0.0901,10.130184 -2.93917,-10.064038 -2.93916,-10.064038 -2.68323,-0.0754 -2.68323,-0.0754 v 19.32384 19.323839 h 2.81957 2.81957 z" />
      <path
         style="fill:#ffffff;stroke-width:0.264583"
         d="m 188.76302,-5.4114029 c 6.1149,-1.5656163 10.25871,-3.8949921 14.64694,-8.2335371 3.13699,-3.101464 4.57031,-5.021405 6.24178,-8.360899 5.6652,-11.31874 3.97332,-24.869696 -4.32118,-34.609929 -4.08157,-4.792993 -9.69495,-8.277494 -16.09678,-9.992056 -3.42674,-0.917763 -9.59041,-1.151445 -13.09687,-0.49654 -12.39345,2.314737 -21.9847,11.207796 -25.17927,23.346354 -0.91544,3.478432 -1.14376,9.3493 -0.50641,13.021296 2.34181,13.492038 12.93566,23.7567817 26.77965,25.9477407 2.75952,0.4367213 8.63367,0.1196737 11.53214,-0.6224296 z"
         id="path860" />
      <path
         id="path862"
         style="fill:#20409a;fill-opacity:1;stroke-width:0.264583"
         d="m 178.11369,-7.7164318 c -3.34396,-1.9399408 -2.93844,-6.9461092 0.67443,-8.3258742 1.43122,-0.546587 3.065,-0.39085 4.12556,0.393261 0.40833,0.301892 0.85139,0.548897 0.98458,0.548897 0.13318,0 2.54902,-0.823619 5.36852,-1.830266 l 5.12638,-1.830268 v -1.166961 -1.166963 l -4.7625,-2.581442 c -3.71608,-2.014249 -4.8497,-2.518992 -5.15938,-2.29721 -2.59297,1.857038 -5.27679,1.773891 -6.95062,-0.215337 -1.95357,-2.321692 -1.3685,-5.731965 1.19943,-6.991157 0.90492,-0.443732 0.989,-0.578241 0.9923,-1.5875 0.002,-0.606478 0.0721,-1.35786 0.15576,-1.669738 0.12467,-0.464611 -0.008,-0.619834 -0.73321,-0.859244 -1.93925,-0.640009 -3.20671,-2.503882 -3.09782,-4.55552 l 0.0694,-1.306631 -4.52362,-2.137037 -4.52362,-2.137034 -0.81078,0.599434 c -1.8058,1.335085 -5.04042,0.810604 -6.35088,-1.029769 -1.65532,-2.324682 -0.82981,-5.844988 1.64616,-7.019915 1.13963,-0.540788 3.33783,-0.565716 4.02542,-0.04565 0.28247,0.213653 0.65418,0.392247 0.82601,0.396875 0.17183,0.0046 2.58284,-1.021513 5.35781,-2.280313 4.62126,-2.096326 5.0454,-2.345089 5.0454,-2.959173 0,-0.368745 0.25255,-1.192143 0.56122,-1.829772 1.70774,-3.52774 6.90326,-3.457266 8.48348,0.115072 0.32572,0.736353 0.48917,1.561643 0.42246,2.133098 l -0.10882,0.93207 4.62167,2.216823 4.62166,2.216822 1.33445,-0.664981 c 1.57857,-0.786637 2.81775,-0.833745 4.29405,-0.163244 3.37238,1.531658 3.64259,6.368613 0.45529,8.150076 -1.64172,0.917604 -3.52429,0.913863 -4.88525,-0.0097 l -0.91113,-0.61831 -5.16711,2.384023 -5.16711,2.384023 v 1.1109 c 0,1.365901 -0.73912,2.692617 -1.95459,3.50851 -1.00308,0.673325 -1.24272,1.213467 -1.28223,2.890142 -0.0247,1.046321 0.0414,1.153705 1.01663,1.651204 1.4513,0.740397 2.34653,2.014733 2.59039,3.687357 l 0.20306,1.392746 4.69637,2.518338 4.69636,2.518339 0.92037,-0.808096 c 3.92752,-3.448407 9.59512,1.861654 6.68331,6.261696 -1.26403,1.91008 -4.11476,2.551996 -6.19044,1.393936 l -1.01639,-0.567058 -5.28608,1.931101 -5.28608,1.931099 0.0812,1.125029 c 0.11781,1.631691 -0.77732,3.330554 -2.19158,4.1593613 -1.44706,0.8480372 -3.56027,0.8926804 -4.91987,0.1039363 z m 4.16894,-2.2317286 c 0.84989,-0.8498946 0.92003,-1.0333676 0.78365,-2.0501076 -0.18895,-1.408711 -1.14895,-2.30813 -2.46361,-2.30813 -1.21956,0 -1.85354,0.364611 -2.36977,1.362903 -0.58075,1.123029 -0.30155,2.398988 0.71143,3.251356 1.1565,0.9731322 2.18827,0.8940033 3.3383,-0.2560214 z m 18.02528,-8.1748526 c 1.27611,-0.659902 1.68658,-2.195205 0.96168,-3.597016 -1.25065,-2.418468 -4.89206,-1.324591 -4.89206,1.46957 0,0.946394 1.55544,2.504477 2.50022,2.504477 0.38558,0 1.02915,-0.169664 1.43016,-0.377031 z m -17.40378,-9.3922 c 1.37188,-1.371881 0.8909,-3.370776 -1.00134,-4.161404 -0.81985,-0.342558 -1.00984,-0.333068 -1.88365,0.0941 -2.59755,1.26983 -1.80927,4.840705 1.06859,4.840705 0.80002,0 1.22318,-0.180178 1.8164,-0.773398 z m -0.40167,-12.205798 c 0.78402,-0.736547 1.00354,-1.679861 0.64427,-2.768481 -0.60069,-1.820103 -2.87077,-2.322708 -4.25205,-0.941425 -1.74548,1.745481 -0.31098,4.738699 2.10881,4.400228 0.49381,-0.06907 1.16835,-0.379717 1.49897,-0.690322 z m 7.04951,-7.28458 4.84119,-2.272112 v -1.422762 -1.422763 l -4.62831,-2.098232 c -4.59097,-2.081306 -4.63365,-2.094428 -5.29167,-1.626663 -1.93957,1.378803 -4.17775,1.262533 -5.96885,-0.310071 l -0.93109,-0.817509 -4.55462,2.054313 c -2.50505,1.129872 -4.62861,2.1282 -4.71904,2.218508 -0.0904,0.09031 -0.1069,0.894228 -0.0366,1.786493 l 0.12779,1.622298 4.44793,2.122384 4.44793,2.122382 1.25592,-0.635828 c 0.69076,-0.349705 1.65629,-0.635828 2.14562,-0.635828 1.05986,0 2.45093,0.541083 2.95562,1.149641 0.19972,0.240821 0.5215,0.437859 0.71507,0.437859 0.19356,0 2.53047,-1.022451 5.19312,-2.27211 z m 11.21765,-1.802474 c 0.95024,-0.950248 1.13741,-1.845154 0.60403,-2.888123 -1.30371,-2.549269 -4.99612,-1.600891 -4.99612,1.28323 0,1.032793 1.55475,2.504477 2.64584,2.504477 0.61009,0 1.09802,-0.251355 1.74625,-0.899584 z m -35.26555,-0.107082 c 1.38199,-1.442487 0.66358,-3.907496 -1.28106,-4.39557 -1.84576,-0.463256 -3.64236,1.577739 -3.02784,3.439728 0.38572,1.168765 1.16974,1.697924 2.51569,1.697924 0.84038,0 1.24115,-0.165849 1.79321,-0.742082 z m 17.34134,-8.3662 c 1.25872,-0.650907 1.68651,-2.195332 0.98426,-3.553347 -0.91058,-1.760852 -3.62703,-1.760852 -4.53761,0 -0.49455,0.956358 -0.47617,1.696529 0.0649,2.612447 0.75079,1.270983 2.13052,1.643121 3.48847,0.9409 z" />
    </g>
  </g>
</svg>
