<svg width="47" height="47" xmlns="http://www.w3.org/2000/svg" xmlns:xlink="http://www.w3.org/1999/xlink" xml:space="preserve" overflow="hidden"><defs><clipPath id="clip0"><rect x="362" y="932" width="47" height="47"/></clipPath></defs><g clip-path="url(#clip0)" transform="translate(-362 -932)"><path d="M365.93 968.033 365.93 950.878C365.93 941.478 373.842 933.567 383.163 933.567L383.163 932C372.98 932 364.363 940.617 364.363 950.878L364.363 968.817C364.363 969.287 364.677 969.6 365.147 969.6L381.597 969.6 381.597 979 383.163 979 383.163 969.6 384.73 969.6 384.73 968.033 382.38 968.033 365.93 968.033Z" fill="#046434"/><path d="M372.197 950.017 372.197 956.283C372.197 956.753 372.51 957.067 372.98 957.067L376.113 957.067 376.113 955.5 373.763 955.5 373.763 950.017 372.197 950.017Z" fill="#046434"/><path d="M406.507 953.542 401.023 945.708C400.788 945.317 400.083 945.317 399.77 945.708L394.287 953.542C394.13 953.777 394.052 954.09 394.208 954.325 394.365 954.56 394.6 954.717 394.913 954.717L397.263 954.717 397.263 979 398.83 979 398.83 953.933C398.83 953.463 398.517 953.15 398.047 953.15L396.402 953.15 400.397 947.432 404.392 953.15 402.747 953.15C402.277 953.15 401.963 953.463 401.963 953.933L401.963 979 403.53 979 403.53 979 403.53 954.717 405.88 954.717C406.193 954.717 406.428 954.56 406.585 954.325 406.663 954.09 406.663 953.777 406.507 953.542Z" fill="#046434"/><path d="M392.563 957.85 392.563 957.85 392.563 957.85 392.563 940.617C392.563 940.147 392.25 939.833 391.78 939.833L390.135 939.833 394.13 934.115 398.125 939.833 396.48 939.833C396.01 939.833 395.697 940.147 395.697 940.617L395.697 946.883 397.263 946.883 397.263 941.4 399.613 941.4C399.927 941.4 400.162 941.243 400.318 941.008 400.397 940.773 400.397 940.46 400.24 940.225L394.757 932.392C394.522 932 393.817 932 393.503 932.392L388.02 940.225C387.863 940.46 387.785 940.773 387.942 941.008 388.098 941.243 388.333 941.4 388.647 941.4L390.997 941.4 390.997 955.657 390.057 954.325C389.822 953.933 389.117 953.933 388.803 954.325L383.32 962.158C383.163 962.393 383.085 962.707 383.242 962.942 383.398 963.177 383.633 963.333 383.947 963.333L386.297 963.333 386.297 979 387.863 979 387.863 962.55C387.863 962.08 387.55 961.767 387.08 961.767L385.435 961.767 389.43 956.048 393.425 961.767 391.78 961.767C391.31 961.767 390.997 962.08 390.997 962.55L390.997 979 392.563 979 392.563 979 392.563 963.333 394.913 963.333C395.227 963.333 395.462 963.177 395.618 962.942 395.697 962.707 395.697 962.393 395.54 962.158L392.563 957.85Z" fill="#046434"/><path d="M401.963 936.7 403.53 936.7 403.53 938.267 401.963 938.267Z" fill="#046434"/><path d="M383.947 939.833 385.513 939.833 385.513 941.4 383.947 941.4Z" fill="#046434"/><path d="M387.08 948.45 388.647 948.45 388.647 950.017 387.08 950.017Z" fill="#046434"/><path d="M382.38 953.933 383.947 953.933 383.947 955.5 382.38 955.5Z" fill="#046434"/><path d="M388.647 932 390.213 932 390.213 933.567 388.647 933.567Z" fill="#046434"/><path d="M398.047 932 399.613 932 399.613 933.567 398.047 933.567Z" fill="#046434"/><path d="M403.53 944.533 405.097 944.533 405.097 946.1 403.53 946.1Z" fill="#046434"/></g></svg>