<svg width="47" height="47" xmlns="http://www.w3.org/2000/svg" xmlns:xlink="http://www.w3.org/1999/xlink" xml:space="preserve" overflow="hidden"><defs><clipPath id="clip0"><rect x="364" y="872" width="47" height="47"/></clipPath></defs><g clip-path="url(#clip0)" transform="translate(-364 -872)"><path d="M407.21 880.777 406.452 880.777 406.452 879.261 410.772 879.261 398.871 872.32 386.97 879.261 391.29 879.261 391.29 880.777 367.79 880.777C365.7 880.777 364 882.478 364 884.568L364 908.826C364 910.916 365.7 912.616 367.79 912.616L379.161 912.616 379.161 917.164 375.371 917.164 375.371 918.68 399.629 918.68 399.629 917.164 395.839 917.164 395.839 912.616 407.21 912.616C409.3 912.616 411 910.916 411 908.826L411 884.568C411 882.478 409.3 880.777 407.21 880.777ZM394.323 917.164 380.677 917.164 380.677 912.616 394.323 912.616 394.323 917.164ZM409.484 908.826C409.484 910.079 408.464 911.1 407.21 911.1L367.79 911.1C366.536 911.1 365.516 910.079 365.516 908.826L365.516 908.068 409.484 908.068 409.484 908.826ZM409.484 906.551 365.516 906.551 365.516 884.568C365.516 883.314 366.536 882.293 367.79 882.293L391.29 882.293 391.29 892.906 392.806 892.906 392.806 877.745 392.578 877.745 398.871 874.074 405.164 877.745 404.935 877.745 404.935 885.326 406.452 885.326 406.452 882.293 407.21 882.293C408.464 882.293 409.484 883.314 409.484 884.568L409.484 906.551Z" fill="#046434"/><path d="M378.403 883.81C372.551 883.81 367.79 888.57 367.79 894.422 367.79 900.275 372.551 905.035 378.403 905.035 384.255 905.035 389.016 900.275 389.016 894.422 389.016 888.57 384.255 883.81 378.403 883.81ZM376.126 885.626C375.332 886.476 374.423 887.633 373.692 889.052 372.855 888.737 372.233 888.395 371.835 888.145 372.988 886.94 374.464 886.056 376.126 885.626ZM370.87 889.329C371.326 889.631 372.065 890.057 373.079 890.446 372.712 891.427 372.459 892.502 372.378 893.664L369.345 893.664C369.478 892.068 370.018 890.587 370.87 889.329ZM370.87 899.516C370.018 898.259 369.478 896.777 369.345 895.18L372.378 895.18C372.458 896.343 372.712 897.418 373.078 898.398 372.064 898.787 371.325 899.213 370.87 899.516ZM371.835 900.7C372.233 900.45 372.855 900.109 373.692 899.793 374.423 901.212 375.331 902.369 376.126 903.219 374.464 902.788 372.988 901.904 371.835 900.7ZM377.645 902.598C376.9 901.857 375.949 900.744 375.182 899.342 375.908 899.169 376.728 899.039 377.645 898.992L377.645 902.598ZM377.645 897.476C376.469 897.53 375.432 897.704 374.532 897.938 374.207 897.092 373.978 896.171 373.897 895.18L377.645 895.18 377.645 897.476ZM377.645 893.664 373.897 893.664C373.978 892.675 374.209 891.753 374.535 890.908 375.434 891.141 376.47 891.315 377.645 891.369L377.645 893.664ZM377.645 889.853C376.729 889.806 375.911 889.676 375.187 889.504 375.952 888.105 376.901 886.993 377.645 886.251L377.645 889.853ZM384.971 888.145C384.574 888.395 383.952 888.736 383.115 889.052 382.384 887.633 381.476 886.476 380.68 885.626 382.341 886.056 383.819 886.94 384.971 888.145ZM379.161 886.247C379.906 886.988 380.858 888.101 381.624 889.503 380.899 889.675 380.079 889.806 379.161 889.853L379.161 886.247ZM379.161 891.369C380.337 891.315 381.375 891.141 382.275 890.907 382.599 891.753 382.83 892.674 382.91 893.664L379.161 893.664 379.161 891.369ZM379.161 895.18 382.91 895.18C382.829 896.17 382.598 897.092 382.272 897.937 381.373 897.703 380.336 897.53 379.161 897.476L379.161 895.18ZM379.161 898.992C380.077 899.039 380.896 899.169 381.62 899.341 380.854 900.739 379.905 901.851 379.161 902.594L379.161 898.992ZM380.68 903.219C381.475 902.369 382.384 901.212 383.115 899.793 383.952 900.108 384.574 900.45 384.971 900.7 383.819 901.904 382.341 902.788 380.68 903.219ZM385.937 899.515C385.481 899.213 384.743 898.787 383.729 898.398 384.094 897.418 384.347 896.343 384.428 895.18L387.462 895.18C387.329 896.777 386.79 898.259 385.937 899.515ZM387.462 893.664 384.428 893.664C384.348 892.502 384.094 891.427 383.729 890.446 384.742 890.058 385.481 889.631 385.937 889.329 386.79 890.586 387.329 892.068 387.462 893.664Z" fill="#046434"/><path d="M405.694 889.874C404.44 889.874 403.419 890.894 403.419 892.148 403.419 892.577 403.545 892.973 403.752 893.315L401.909 896.08C401.669 895.994 401.414 895.939 401.145 895.939 400.739 895.939 400.363 896.055 400.032 896.242L398.71 895.249C398.811 894.992 398.871 894.715 398.871 894.422 398.871 893.169 397.851 892.148 396.597 892.148 395.343 892.148 394.323 893.169 394.323 894.422 394.323 894.816 394.432 895.18 394.608 895.504L392.91 897.627C392.644 897.517 392.354 897.455 392.048 897.455 390.795 897.455 389.774 898.475 389.774 899.729 389.774 900.983 390.795 902.003 392.048 902.003 393.302 902.003 394.323 900.983 394.323 899.729 394.323 899.335 394.213 898.971 394.037 898.647L395.735 896.525C396.001 896.634 396.291 896.697 396.597 896.697 397.003 896.697 397.379 896.581 397.71 896.393L399.032 897.386C398.931 897.643 398.871 897.92 398.871 898.213 398.871 899.467 399.891 900.487 401.145 900.487 402.399 900.487 403.419 899.467 403.419 898.213 403.419 897.784 403.294 897.388 403.087 897.046L404.929 894.281C405.17 894.367 405.424 894.422 405.694 894.422 406.947 894.422 407.968 893.402 407.968 892.148 407.968 890.894 406.947 889.874 405.694 889.874ZM392.048 900.487C391.63 900.487 391.29 900.147 391.29 899.729 391.29 899.31 391.63 898.971 392.048 898.971 392.467 898.971 392.806 899.31 392.806 899.729 392.806 900.147 392.467 900.487 392.048 900.487ZM396.597 895.18C396.178 895.18 395.839 894.841 395.839 894.422 395.839 894.004 396.178 893.664 396.597 893.664 397.015 893.664 397.355 894.004 397.355 894.422 397.355 894.841 397.015 895.18 396.597 895.18ZM401.145 898.971C400.727 898.971 400.387 898.631 400.387 898.213 400.387 897.794 400.727 897.455 401.145 897.455 401.564 897.455 401.903 897.794 401.903 898.213 401.903 898.631 401.564 898.971 401.145 898.971ZM405.694 892.906C405.275 892.906 404.935 892.567 404.935 892.148 404.935 891.73 405.275 891.39 405.694 891.39 406.112 891.39 406.452 891.73 406.452 892.148 406.452 892.567 406.112 892.906 405.694 892.906Z" fill="#046434"/><path d="M391.29 894.422 392.806 894.422 392.806 895.939 391.29 895.939Z" fill="#046434"/><path d="M404.935 886.842 406.452 886.842 406.452 888.358 404.935 888.358Z" fill="#046434"/><path d="M395.839 889.116 397.355 889.116 397.355 890.632 395.839 890.632Z" fill="#046434"/><path d="M400.387 892.906 401.903 892.906 401.903 894.422 400.387 894.422Z" fill="#046434"/><path d="M395.839 886.084 397.355 886.084 397.355 887.6 395.839 887.6Z" fill="#046434"/><path d="M400.387 889.874 401.903 889.874 401.903 891.39 400.387 891.39Z" fill="#046434"/><path d="M395.839 877.745 397.355 877.745 397.355 884.568 395.839 884.568Z" fill="#046434"/><path d="M400.387 877.745 401.903 877.745 401.903 888.358 400.387 888.358Z" fill="#046434"/></g></svg>