<svg width="47" height="47" xmlns="http://www.w3.org/2000/svg" xmlns:xlink="http://www.w3.org/1999/xlink" xml:space="preserve" overflow="hidden"><defs><clipPath id="clip0"><rect x="364" y="814" width="47" height="47"/></clipPath></defs><g clip-path="url(#clip0)" transform="translate(-364 -814)"><path d="M394.405 823.943C388.762 818.301 379.581 818.301 373.939 823.943 371.205 826.677 369.7 830.311 369.7 834.176 369.7 838.042 371.205 841.676 373.939 844.41 376.76 847.231 380.466 848.641 384.172 848.641 387.878 848.641 391.583 847.231 394.405 844.41 400.047 838.767 400.047 829.586 394.405 823.943ZM393.353 843.358C388.29 848.421 380.053 848.42 374.99 843.358 372.538 840.906 371.187 837.645 371.187 834.176 371.187 830.708 372.538 827.447 374.99 824.995 377.522 822.464 380.847 821.198 384.172 821.198 387.497 821.198 390.822 822.464 393.353 824.995 398.416 830.058 398.416 838.295 393.353 843.358Z" fill="#046434"/><path d="M400.053 827.544C399.895 827.165 399.46 826.986 399.081 827.145 398.702 827.303 398.523 827.739 398.681 828.118 399.481 830.032 399.886 832.071 399.886 834.176 399.886 834.587 400.219 834.92 400.63 834.92 401.041 834.92 401.374 834.587 401.374 834.176 401.374 831.873 400.93 829.642 400.053 827.544Z" fill="#046434"/><path d="M398.21 824.227C397.652 823.444 397.021 822.698 396.335 822.013 393.086 818.764 388.766 816.974 384.172 816.974 383.761 816.974 383.428 817.307 383.428 817.718 383.428 818.129 383.761 818.462 384.172 818.462 388.369 818.462 392.316 820.096 395.284 823.064 395.911 823.692 396.488 824.373 396.998 825.09 397.143 825.294 397.372 825.402 397.604 825.402 397.753 825.402 397.904 825.357 398.035 825.264 398.369 825.026 398.448 824.562 398.21 824.227Z" fill="#046434"/><path d="M410.778 856.365 405.169 850.757C404.879 850.467 404.408 850.467 404.117 850.757L402.961 851.914 398.954 847.907C402.437 844.163 404.348 839.317 404.348 834.176 404.348 828.787 402.249 823.72 398.439 819.91 394.628 816.099 389.561 814 384.172 814 378.782 814 373.716 816.099 369.905 819.91 362.038 827.776 362.038 840.577 369.905 848.443 373.716 852.254 378.782 854.353 384.172 854.353 389.312 854.353 394.158 852.442 397.902 848.959L401.909 852.965 400.752 854.122C400.462 854.413 400.462 854.883 400.752 855.174L406.361 860.782C406.506 860.927 406.696 861 406.886 861 407.077 861 407.267 860.927 407.412 860.782L410.778 857.417C411.068 857.127 411.068 856.656 410.778 856.365ZM397.387 847.392C393.857 850.922 389.164 852.866 384.172 852.866 379.18 852.866 374.486 850.922 370.956 847.392 363.669 840.105 363.669 828.248 370.956 820.961 374.486 817.431 379.18 815.487 384.172 815.487 389.164 815.487 393.857 817.431 397.387 820.961 400.917 824.491 402.861 829.185 402.861 834.176 402.861 839.168 400.917 843.862 397.387 847.392ZM406.887 859.205 402.33 854.648 403.485 853.492C403.486 853.492 403.486 853.492 403.486 853.491 403.487 853.491 403.487 853.49 403.487 853.49L404.643 852.334 409.2 856.891 406.887 859.205Z" fill="#046434"/><path d="M394.388 838.192 393.545 838.192 393.545 826.641C393.545 826.23 393.212 825.898 392.802 825.898L389.232 825.898C388.822 825.898 388.489 826.23 388.489 826.641L388.489 838.192 386.407 838.192 386.407 830.211C386.407 829.8 386.074 829.467 385.663 829.467L382.094 829.467C381.683 829.467 381.35 829.8 381.35 830.211L381.35 838.192 379.268 838.192 379.268 829.021C379.268 828.61 378.935 828.277 378.525 828.277L374.955 828.277C374.545 828.277 374.212 828.61 374.212 829.021L374.212 838.192 373.369 838.192C372.958 838.192 372.625 838.525 372.625 838.935 372.625 839.346 372.958 839.679 373.369 839.679L374.955 839.679 378.524 839.679 382.094 839.679 385.663 839.679 389.232 839.679 392.802 839.679 394.388 839.679C394.799 839.679 395.132 839.346 395.132 838.935 395.132 838.525 394.799 838.192 394.388 838.192ZM377.781 838.192 375.699 838.192 375.699 829.764 377.781 829.764 377.781 838.192ZM384.92 838.192 382.838 838.192 382.838 830.954 384.92 830.954 384.92 838.192ZM392.058 838.192 389.976 838.192 389.976 827.385 392.058 827.385 392.058 838.192Z" fill="#046434"/></g></svg>